<svg id="Layer_2" data-name="Layer 2" xmlns="http://www.w3.org/2000/svg" viewBox="0 0 97.32 98.02"><defs><style>.cls-1{fill:none;stroke:#001a70;stroke-linecap:round;stroke-width:2px;}</style></defs><path class="cls-1" d="M45.26,39.65a8.74,8.74,0,0,0,9.07,2.61c4.6-1.41,5.81-6.11,5.87-6.33" transform="translate(-1.29 -1.09)"/><path class="cls-1" d="M45.13,48.13A8.06,8.06,0,0,0,49,46.89a8.15,8.15,0,0,0,3.24-4.27" transform="translate(-1.29 -1.09)"/><path class="cls-1" d="M58.3,47.48a4.7,4.7,0,0,0,6.53,1.69,4.55,4.55,0,0,0,1.43-5.08" transform="translate(-1.29 -1.09)"/><path class="cls-1" d="M75.65,40.63a5.35,5.35,0,1,0-5-9.46" transform="translate(-1.29 -1.09)"/><path class="cls-1" d="M60.46,21.2a5.26,5.26,0,1,0-10.5.13" transform="translate(-1.29 -1.09)"/><path class="cls-1" d="M51,17.8a10.55,10.55,0,0,0-10-1.56A10.92,10.92,0,0,0,34.89,23" transform="translate(-1.29 -1.09)"/><path class="cls-1" d="M36.35,20.19a7.76,7.76,0,0,0-6.42.48A8.24,8.24,0,0,0,26,27.13" transform="translate(-1.29 -1.09)"/><path class="cls-1" d="M31.43,29.28a5.45,5.45,0,0,0-8-.52c-1.91,2-2.34,6.07,1.5,8.48" transform="translate(-1.29 -1.09)"/><path class="cls-1" d="M22.61,34.87a12.08,12.08,0,0,0-1.15,12.22c2.54,5,9,7.64,15,5.68" transform="translate(-1.29 -1.09)"/><path class="cls-1" d="M30.33,43.76a5.44,5.44,0,0,0,1.76,3.46,5.36,5.36,0,0,0,3.64,1.29" transform="translate(-1.29 -1.09)"/><path class="cls-1" d="M36.91,44.54A9.07,9.07,0,0,0,50.74,56" transform="translate(-1.29 -1.09)"/><path class="cls-1" d="M47.48,53.28a13.93,13.93,0,0,0,6.19,3A14.27,14.27,0,0,0,63,54.91" transform="translate(-1.29 -1.09)"/><path class="cls-1" d="M55.91,56.54a7.25,7.25,0,0,0,1.74,3.26,12,12,0,0,0,4.05,2.48c2.25,1,3,.68,4.3,1.76,1.12.92,1.13,1.56,2.35,2.22a4.26,4.26,0,0,0,2.93.59,3.9,3.9,0,0,0,3-2.74c.32-1.3-.31-2.39-1.11-3.72a13,13,0,0,0-1.75-2.3" transform="translate(-1.29 -1.09)"/><path class="cls-1" d="M67.24,59.28a11,11,0,0,0,7.5-3.85A10.36,10.36,0,0,0,77,50" transform="translate(-1.29 -1.09)"/><path class="cls-1" d="M64.68,49.27a9.9,9.9,0,0,0,10.39,2A8.86,8.86,0,0,0,80,45a9.15,9.15,0,0,0-1.63-7.16" transform="translate(-1.29 -1.09)"/><path class="cls-1" d="M73.76,30.4a12.29,12.29,0,0,0-4.83-9.07A11.32,11.32,0,0,0,60.05,19" transform="translate(-1.29 -1.09)"/><path class="cls-1" d="M44.48,29.09a7.17,7.17,0,0,0-5.94,6.39" transform="translate(-1.29 -1.09)"/><line class="cls-1" x1="15.34" y1="27.67" x2="9.86" y2="25.26"/><line class="cls-1" x1="22.12" y1="14.96" x2="19.77" y2="12.67"/><line class="cls-1" x1="34.9" y1="8.43" x2="32.42" y2="2.5"/><line class="cls-1" x1="48.65" y1="3.67" x2="48.65" y2="1"/><line class="cls-1" x1="62.29" y1="8.43" x2="64.84" y2="2.5"/><line class="cls-1" x1="75.01" y1="14.96" x2="77.81" y2="12.67"/><line class="cls-1" x1="81.92" y1="27.67" x2="87.92" y2="25.26"/><path class="cls-1" d="M83.75,51.38s5.69-1.47,6.12,0c1.83,6.27,7.73,38.49,7.73,38.49h0A4.09,4.09,0,0,1,96.67,93c-1.42,1.57-3.57,1.57-6.41,1.62-3.34.05-32-.2-32-.2l-.57-8.85" transform="translate(-1.29 -1.09)"/><path class="cls-1" d="M49.94,86.67V63.32" transform="translate(-1.29 -1.09)"/><path class="cls-1" d="M21.58,47.35s-4.67-.22-4.88.78c-1.83,8.42-6,36.46-6,36.46h0a1.89,1.89,0,0,0,.13,1.63,1.63,1.63,0,0,0,1.95.52,21.08,21.08,0,0,1,8.27-2.54,50.8,50.8,0,0,1,12.73.08c8.39,1.16,12,1.69,16.18,3.11,4.16-1.42,7.79-2,16.17-3.11a50.8,50.8,0,0,1,12.73-.08,21.08,21.08,0,0,1,8.27,2.54,1.65,1.65,0,0,0,2-.52,1.93,1.93,0,0,0,.13-1.63h0s-4.18-28-6-36.46c-.22-1-4-.78-4-.78" transform="translate(-1.29 -1.09)"/><path class="cls-1" d="M16.16,51.38s-5.69-1.47-6.12,0C8.22,57.65,2.32,89.87,2.32,89.87h0A4.08,4.08,0,0,0,3.24,93c1.42,1.57,3.58,1.57,6.41,1.62,3.34.05,32-.2,32-.2l.58-8.85" transform="translate(-1.29 -1.09)"/><path class="cls-1" d="M41.13,94.38c.51.82.54.9,2.47,2a11.57,11.57,0,0,0,6.31,1.67H50a11.61,11.61,0,0,0,6.32-1.67c1.93-1.14,2-1.22,2.46-2" transform="translate(-1.29 -1.09)"/></svg>